<mxfile host="app.diagrams.net" modified="2024-04-17T14:24:26.391Z" agent="Mozilla/5.0 (Macintosh; Intel Mac OS X 10_15_7) AppleWebKit/537.36 (KHTML, like Gecko) Chrome/123.0.0.0 Safari/537.36" etag="JWDs2fQiI9Dor7Ty9qbT" version="24.2.0" type="github">
  <diagram name="Page-1" id="Di3P7CJWVdKyWvqaVjat">
    <mxGraphModel dx="3116" dy="862" grid="1" gridSize="10" guides="1" tooltips="1" connect="1" arrows="1" fold="1" page="1" pageScale="1" pageWidth="850" pageHeight="1100" math="0" shadow="0">
      <root>
        <mxCell id="0" />
        <mxCell id="1" parent="0" />
        <mxCell id="97cHICTSzENazOM_6jGO-34" value="" style="rounded=0;whiteSpace=wrap;html=1;dashed=1;fillColor=#f5f5f5;fontColor=#333333;strokeColor=#666666;" vertex="1" parent="1">
          <mxGeometry x="-337.5" y="627" width="705" height="120" as="geometry" />
        </mxCell>
        <mxCell id="97cHICTSzENazOM_6jGO-33" value="" style="rounded=0;whiteSpace=wrap;html=1;dashed=1;fillColor=#f5f5f5;fontColor=#333333;strokeColor=#666666;" vertex="1" parent="1">
          <mxGeometry x="-337.5" y="477" width="705" height="120" as="geometry" />
        </mxCell>
        <mxCell id="97cHICTSzENazOM_6jGO-32" value="" style="rounded=0;whiteSpace=wrap;html=1;dashed=1;fillColor=#f5f5f5;fontColor=#333333;strokeColor=#666666;" vertex="1" parent="1">
          <mxGeometry x="-337.5" y="297" width="705" height="120" as="geometry" />
        </mxCell>
        <mxCell id="97cHICTSzENazOM_6jGO-15" style="edgeStyle=orthogonalEdgeStyle;rounded=0;orthogonalLoop=1;jettySize=auto;html=1;" edge="1" parent="1" source="97cHICTSzENazOM_6jGO-1" target="97cHICTSzENazOM_6jGO-2">
          <mxGeometry relative="1" as="geometry" />
        </mxCell>
        <mxCell id="97cHICTSzENazOM_6jGO-1" value="Topic Metadatas" style="shape=note;whiteSpace=wrap;html=1;backgroundOutline=1;darkOpacity=0.05;" vertex="1" parent="1">
          <mxGeometry x="-275" y="127" width="80" height="100" as="geometry" />
        </mxCell>
        <mxCell id="97cHICTSzENazOM_6jGO-16" style="edgeStyle=orthogonalEdgeStyle;rounded=0;orthogonalLoop=1;jettySize=auto;html=1;entryX=0.5;entryY=0;entryDx=0;entryDy=0;" edge="1" parent="1" source="97cHICTSzENazOM_6jGO-2" target="97cHICTSzENazOM_6jGO-6">
          <mxGeometry relative="1" as="geometry">
            <Array as="points">
              <mxPoint x="-235" y="437" />
              <mxPoint x="15" y="437" />
            </Array>
          </mxGeometry>
        </mxCell>
        <mxCell id="97cHICTSzENazOM_6jGO-2" value="Batch Import" style="rounded=1;whiteSpace=wrap;html=1;" vertex="1" parent="1">
          <mxGeometry x="-295" y="327" width="120" height="60" as="geometry" />
        </mxCell>
        <mxCell id="97cHICTSzENazOM_6jGO-25" style="edgeStyle=orthogonalEdgeStyle;rounded=0;orthogonalLoop=1;jettySize=auto;html=1;" edge="1" parent="1" source="97cHICTSzENazOM_6jGO-3" target="97cHICTSzENazOM_6jGO-4">
          <mxGeometry relative="1" as="geometry" />
        </mxCell>
        <mxCell id="97cHICTSzENazOM_6jGO-27" style="edgeStyle=orthogonalEdgeStyle;rounded=0;orthogonalLoop=1;jettySize=auto;html=1;" edge="1" parent="1" source="97cHICTSzENazOM_6jGO-3" target="97cHICTSzENazOM_6jGO-7">
          <mxGeometry relative="1" as="geometry">
            <Array as="points">
              <mxPoint x="15" y="267" />
              <mxPoint x="275" y="267" />
            </Array>
          </mxGeometry>
        </mxCell>
        <mxCell id="97cHICTSzENazOM_6jGO-3" value="ENG/SRE/ESG" style="shape=umlActor;verticalLabelPosition=bottom;verticalAlign=top;html=1;outlineConnect=0;" vertex="1" parent="1">
          <mxGeometry y="137" width="30" height="60" as="geometry" />
        </mxCell>
        <mxCell id="97cHICTSzENazOM_6jGO-17" style="edgeStyle=orthogonalEdgeStyle;rounded=0;orthogonalLoop=1;jettySize=auto;html=1;entryX=0.5;entryY=0;entryDx=0;entryDy=0;" edge="1" parent="1" source="97cHICTSzENazOM_6jGO-4" target="97cHICTSzENazOM_6jGO-6">
          <mxGeometry relative="1" as="geometry" />
        </mxCell>
        <mxCell id="97cHICTSzENazOM_6jGO-4" value="UI Topic Input" style="rounded=1;whiteSpace=wrap;html=1;strokeColor=default;align=center;verticalAlign=middle;fontFamily=Helvetica;fontSize=12;fontColor=default;fillColor=default;" vertex="1" parent="1">
          <mxGeometry x="-45" y="327" width="120" height="60" as="geometry" />
        </mxCell>
        <mxCell id="97cHICTSzENazOM_6jGO-20" style="edgeStyle=orthogonalEdgeStyle;rounded=0;orthogonalLoop=1;jettySize=auto;html=1;dashed=1;strokeColor=#808080;" edge="1" parent="1" source="97cHICTSzENazOM_6jGO-5" target="97cHICTSzENazOM_6jGO-9">
          <mxGeometry relative="1" as="geometry">
            <Array as="points">
              <mxPoint x="15" y="777" />
              <mxPoint x="-340" y="777" />
            </Array>
          </mxGeometry>
        </mxCell>
        <mxCell id="97cHICTSzENazOM_6jGO-21" style="edgeStyle=orthogonalEdgeStyle;rounded=0;orthogonalLoop=1;jettySize=auto;html=1;dashed=1;strokeColor=#808080;" edge="1" parent="1" source="97cHICTSzENazOM_6jGO-5" target="97cHICTSzENazOM_6jGO-10">
          <mxGeometry relative="1" as="geometry">
            <Array as="points">
              <mxPoint x="15" y="777" />
              <mxPoint x="-165" y="777" />
            </Array>
          </mxGeometry>
        </mxCell>
        <mxCell id="97cHICTSzENazOM_6jGO-22" style="edgeStyle=orthogonalEdgeStyle;rounded=0;orthogonalLoop=1;jettySize=auto;html=1;dashed=1;strokeColor=#808080;" edge="1" parent="1" source="97cHICTSzENazOM_6jGO-5" target="97cHICTSzENazOM_6jGO-11">
          <mxGeometry relative="1" as="geometry" />
        </mxCell>
        <mxCell id="97cHICTSzENazOM_6jGO-23" style="edgeStyle=orthogonalEdgeStyle;rounded=0;orthogonalLoop=1;jettySize=auto;html=1;dashed=1;strokeColor=#808080;" edge="1" parent="1" source="97cHICTSzENazOM_6jGO-5" target="97cHICTSzENazOM_6jGO-12">
          <mxGeometry relative="1" as="geometry">
            <Array as="points">
              <mxPoint x="15" y="777" />
              <mxPoint x="180" y="777" />
            </Array>
          </mxGeometry>
        </mxCell>
        <mxCell id="97cHICTSzENazOM_6jGO-5" value="Metadata Store" style="shape=cylinder3;whiteSpace=wrap;html=1;boundedLbl=1;backgroundOutline=1;size=15;" vertex="1" parent="1">
          <mxGeometry x="-15" y="647" width="60" height="80" as="geometry" />
        </mxCell>
        <mxCell id="97cHICTSzENazOM_6jGO-6" value="Topic Metadata Service" style="rounded=1;whiteSpace=wrap;html=1;" vertex="1" parent="1">
          <mxGeometry x="-45" y="507" width="120" height="60" as="geometry" />
        </mxCell>
        <mxCell id="97cHICTSzENazOM_6jGO-18" style="edgeStyle=orthogonalEdgeStyle;rounded=0;orthogonalLoop=1;jettySize=auto;html=1;entryX=0.5;entryY=0;entryDx=0;entryDy=0;" edge="1" parent="1" source="97cHICTSzENazOM_6jGO-7" target="97cHICTSzENazOM_6jGO-6">
          <mxGeometry relative="1" as="geometry">
            <Array as="points">
              <mxPoint x="275" y="437" />
              <mxPoint x="15" y="437" />
            </Array>
          </mxGeometry>
        </mxCell>
        <mxCell id="97cHICTSzENazOM_6jGO-7" value="Topic Metadata Lookup" style="rounded=1;whiteSpace=wrap;html=1;strokeColor=default;align=center;verticalAlign=middle;fontFamily=Helvetica;fontSize=12;fontColor=default;fillColor=default;" vertex="1" parent="1">
          <mxGeometry x="215" y="327" width="120" height="60" as="geometry" />
        </mxCell>
        <mxCell id="97cHICTSzENazOM_6jGO-8" value="Topic Metadata Popup: Topic, Team, Consumer, e.t.c" style="shape=callout;whiteSpace=wrap;html=1;perimeter=calloutPerimeter;" vertex="1" parent="1">
          <mxGeometry x="215" y="147" width="190" height="110" as="geometry" />
        </mxCell>
        <mxCell id="97cHICTSzENazOM_6jGO-9" value="Metadata Schema (STG)" style="shape=cylinder3;whiteSpace=wrap;html=1;boundedLbl=1;backgroundOutline=1;size=15;dashed=1;strokeColor=#808080;" vertex="1" parent="1">
          <mxGeometry x="-370" y="827" width="60" height="80" as="geometry" />
        </mxCell>
        <mxCell id="97cHICTSzENazOM_6jGO-10" value="Metadata Schema (PROD)" style="shape=cylinder3;whiteSpace=wrap;html=1;boundedLbl=1;backgroundOutline=1;size=15;dashed=1;strokeColor=#808080;" vertex="1" parent="1">
          <mxGeometry x="-195" y="827" width="60" height="80" as="geometry" />
        </mxCell>
        <mxCell id="97cHICTSzENazOM_6jGO-11" value="Metadata Schema (SBX)" style="shape=cylinder3;whiteSpace=wrap;html=1;boundedLbl=1;backgroundOutline=1;size=15;dashed=1;strokeColor=#808080;" vertex="1" parent="1">
          <mxGeometry x="-15" y="827" width="60" height="80" as="geometry" />
        </mxCell>
        <mxCell id="97cHICTSzENazOM_6jGO-12" value="Metadata Schema (CSBX)" style="shape=cylinder3;whiteSpace=wrap;html=1;boundedLbl=1;backgroundOutline=1;size=15;dashed=1;strokeColor=#808080;" vertex="1" parent="1">
          <mxGeometry x="150" y="827" width="60" height="80" as="geometry" />
        </mxCell>
        <mxCell id="97cHICTSzENazOM_6jGO-13" value="Metadata Schema (...)" style="shape=cylinder3;whiteSpace=wrap;html=1;boundedLbl=1;backgroundOutline=1;size=15;dashed=1;strokeColor=#808080;" vertex="1" parent="1">
          <mxGeometry x="320" y="827" width="60" height="80" as="geometry" />
        </mxCell>
        <mxCell id="97cHICTSzENazOM_6jGO-19" style="edgeStyle=orthogonalEdgeStyle;rounded=0;orthogonalLoop=1;jettySize=auto;html=1;entryX=0.5;entryY=0;entryDx=0;entryDy=0;entryPerimeter=0;" edge="1" parent="1" source="97cHICTSzENazOM_6jGO-6" target="97cHICTSzENazOM_6jGO-5">
          <mxGeometry relative="1" as="geometry" />
        </mxCell>
        <mxCell id="97cHICTSzENazOM_6jGO-24" style="edgeStyle=orthogonalEdgeStyle;rounded=0;orthogonalLoop=1;jettySize=auto;html=1;entryX=0.5;entryY=0;entryDx=0;entryDy=0;entryPerimeter=0;dashed=1;strokeColor=#808080;" edge="1" parent="1" source="97cHICTSzENazOM_6jGO-5" target="97cHICTSzENazOM_6jGO-13">
          <mxGeometry relative="1" as="geometry">
            <Array as="points">
              <mxPoint x="15" y="777" />
              <mxPoint x="350" y="777" />
            </Array>
          </mxGeometry>
        </mxCell>
        <mxCell id="97cHICTSzENazOM_6jGO-26" value="SRE (one-time import)" style="text;html=1;align=center;verticalAlign=middle;resizable=0;points=[];autosize=1;strokeColor=none;fillColor=none;" vertex="1" parent="1">
          <mxGeometry x="-230" y="237" width="140" height="30" as="geometry" />
        </mxCell>
        <mxCell id="97cHICTSzENazOM_6jGO-28" style="rounded=0;orthogonalLoop=1;jettySize=auto;html=1;entryX=0;entryY=0;entryDx=95;entryDy=110;entryPerimeter=0;exitX=0.5;exitY=0;exitDx=0;exitDy=0;dashed=1;strokeColor=#CC0000;" edge="1" parent="1" source="97cHICTSzENazOM_6jGO-7" target="97cHICTSzENazOM_6jGO-8">
          <mxGeometry relative="1" as="geometry" />
        </mxCell>
        <mxCell id="97cHICTSzENazOM_6jGO-35" value="UI Layer&lt;br&gt;(Frontend)" style="text;html=1;align=center;verticalAlign=middle;resizable=0;points=[];autosize=1;strokeColor=none;fillColor=none;" vertex="1" parent="1">
          <mxGeometry x="-445" y="337" width="80" height="40" as="geometry" />
        </mxCell>
        <mxCell id="97cHICTSzENazOM_6jGO-37" value="API Server Layer&lt;br&gt;(Backend)" style="text;html=1;align=center;verticalAlign=middle;resizable=0;points=[];autosize=1;strokeColor=none;fillColor=none;" vertex="1" parent="1">
          <mxGeometry x="-460" y="517" width="110" height="40" as="geometry" />
        </mxCell>
        <mxCell id="97cHICTSzENazOM_6jGO-38" value="Persistent Layer&lt;div&gt;(DB)&lt;/div&gt;" style="text;html=1;align=center;verticalAlign=middle;resizable=0;points=[];autosize=1;strokeColor=none;fillColor=none;" vertex="1" parent="1">
          <mxGeometry x="-460" y="667" width="110" height="40" as="geometry" />
        </mxCell>
        <mxCell id="97cHICTSzENazOM_6jGO-39" value="&lt;h3 style=&quot;box-sizing: border-box; margin: 0px; font-size: 14px; font-weight: var(--base-text-weight-normal, 400); color: rgb(31, 35, 40); font-family: -apple-system, &amp;quot;system-ui&amp;quot;, &amp;quot;Segoe UI&amp;quot;, &amp;quot;Noto Sans&amp;quot;, Helvetica, Arial, sans-serif, &amp;quot;Apple Color Emoji&amp;quot;, &amp;quot;Segoe UI Emoji&amp;quot;; text-align: left; text-wrap: wrap; background-color: rgb(246, 248, 250);&quot;&gt;&lt;div class=&quot;react-directory-truncate&quot; style=&quot;box-sizing: border-box; display: inline-block; max-width: 100%; overflow: hidden; text-overflow: ellipsis; white-space: pre; vertical-align: top;&quot;&gt;kafka-ui-react-app&lt;/div&gt;&lt;/h3&gt;" style="text;html=1;align=center;verticalAlign=middle;resizable=0;points=[];autosize=1;strokeColor=none;fillColor=none;" vertex="1" parent="1">
          <mxGeometry x="-180" y="297" width="150" height="30" as="geometry" />
        </mxCell>
        <mxCell id="97cHICTSzENazOM_6jGO-40" value="&lt;h3 style=&quot;box-sizing: border-box; margin: 0px; font-size: 14px; font-weight: var(--base-text-weight-normal, 400); color: rgb(31, 35, 40); font-family: -apple-system, &amp;quot;system-ui&amp;quot;, &amp;quot;Segoe UI&amp;quot;, &amp;quot;Noto Sans&amp;quot;, Helvetica, Arial, sans-serif, &amp;quot;Apple Color Emoji&amp;quot;, &amp;quot;Segoe UI Emoji&amp;quot;; text-align: left; text-wrap: wrap; background-color: rgb(246, 248, 250);&quot;&gt;&lt;div style=&quot;box-sizing: border-box; display: inline-block; max-width: 100%; overflow: hidden; text-overflow: ellipsis; white-space: pre; vertical-align: top;&quot; class=&quot;react-directory-truncate&quot;&gt;kafka-ui-api&lt;/div&gt;&lt;/h3&gt;" style="text;html=1;align=center;verticalAlign=middle;resizable=0;points=[];autosize=1;strokeColor=none;fillColor=none;fontStyle=4" vertex="1" parent="1">
          <mxGeometry x="-330" y="497" width="100" height="30" as="geometry" />
        </mxCell>
        <mxCell id="97cHICTSzENazOM_6jGO-41" value="&lt;h3 style=&quot;box-sizing: border-box; margin: 0px; font-size: 14px; font-weight: var(--base-text-weight-normal, 400); color: rgb(31, 35, 40); font-family: -apple-system, &amp;quot;system-ui&amp;quot;, &amp;quot;Segoe UI&amp;quot;, &amp;quot;Noto Sans&amp;quot;, Helvetica, Arial, sans-serif, &amp;quot;Apple Color Emoji&amp;quot;, &amp;quot;Segoe UI Emoji&amp;quot;; text-align: left; text-wrap: wrap; background-color: rgb(246, 248, 250);&quot;&gt;&lt;div class=&quot;react-directory-truncate&quot; style=&quot;box-sizing: border-box; display: inline-block; max-width: 100%; overflow: hidden; text-overflow: ellipsis; white-space: pre; vertical-align: top;&quot;&gt;&lt;span&gt;kafka-ui-metadata-store&lt;/span&gt;&lt;/div&gt;&lt;/h3&gt;" style="text;html=1;align=center;verticalAlign=middle;resizable=0;points=[];autosize=1;strokeColor=none;fillColor=none;fontStyle=4" vertex="1" parent="1">
          <mxGeometry x="-337.5" y="637" width="180" height="30" as="geometry" />
        </mxCell>
      </root>
    </mxGraphModel>
  </diagram>
</mxfile>
